<svg xmlns="http://www.w3.org/2000/svg" xmlns:xlink="http://www.w3.org/1999/xlink" width="400" zoomAndPan="magnify" viewBox="0 0 79.5 30.000001" height="200" preserveAspectRatio="xMidYMid meet" version="1.0">
    <defs>
        <g />
        <clipPath id="id1">
            <path d="M 13 6.753906 L 20 6.753906 L 20 12 L 13 12 Z M 13 6.753906 " clip-rule="nonzero" />
        </clipPath>
        <clipPath id="id2">
            <path d="M 7.765625 16.972656 L 13.632812 16.972656 L 13.632812 22.09375 L 7.765625 22.09375 Z M 7.765625 16.972656 " clip-rule="nonzero" />
        </clipPath>
        <clipPath id="id3">
            <path d="M 10.644531 11.863281 L 19.449219 11.863281 L 19.449219 22.09375 L 10.644531 22.09375 Z M 10.644531 11.863281 " clip-rule="nonzero" />
        </clipPath>
        <clipPath id="id4">
            <path d="M 16.511719 11.863281 L 25.285156 11.863281 L 25.285156 22.09375 L 16.511719 22.09375 Z M 16.511719 11.863281 " clip-rule="nonzero" />
        </clipPath>
    </defs>
    <g clip-path="url(#id1)">
        <path fill="#03c9d7" d="M 17.984375 6.753906 L 15.0625 6.753906 L 13.605469 9.308594 L 15.0625 11.867188 L 17.984375 11.867188 L 19.441406 9.308594 L 17.984375 6.753906 " fill-opacity="1" fill-rule="nonzero" />
    </g>
    <g clip-path="url(#id2)">
        <path fill="#363166" d="M 12.144531 16.976562 L 9.226562 16.976562 L 7.765625 19.539062 L 9.226562 22.09375 L 12.144531 22.09375 L 13.605469 19.539062 L 12.144531 16.976562 " fill-opacity="1" fill-rule="nonzero" />
    </g>
    <g clip-path="url(#id3)">
        <path fill="#615b9d" d="M 18.523438 17.921875 L 18.425781 17.75 L 17.984375 16.976562 L 16.019531 13.539062 L 15.0625 11.867188 L 12.144531 11.867188 L 10.683594 14.421875 L 11.664062 16.140625 L 14.074219 20.359375 L 15.0625 22.09375 L 17.984375 22.09375 L 19.441406 19.539062 L 18.523438 17.921875 " fill-opacity="1" fill-rule="nonzero" />
    </g>
    <g clip-path="url(#id4)">
        <path fill="#918bcb" d="M 24.292969 17.796875 L 24.296875 17.796875 L 21.796875 13.414062 L 21.789062 13.414062 L 20.90625 11.867188 L 17.984375 11.867188 L 16.523438 14.421875 L 17.984375 16.976562 L 17.988281 16.976562 L 19.445312 19.53125 L 19.441406 19.539062 L 20.90625 22.09375 L 23.824219 22.09375 L 25.285156 19.539062 L 24.292969 17.796875 " fill-opacity="1" fill-rule="nonzero" />
    </g>
    <g fill="#140e54" fill-opacity="1">
        <g transform="translate(27.572132, 14.260145)">
            <g>
                <path d="M 1.96875 -4.140625 C 2.5 -4.140625 2.765625 -3.859375 2.765625 -3.296875 L 2.765625 -0.84375 C 2.765625 -0.28125 2.5 0 1.96875 0 L 0.328125 0 L 0.328125 -4.140625 Z M 1.859375 -0.75 L 1.859375 -3.40625 C 1.859375 -3.4375 1.847656 -3.460938 1.828125 -3.484375 C 1.804688 -3.515625 1.78125 -3.53125 1.75 -3.53125 L 1.21875 -3.53125 L 1.21875 -0.609375 L 1.75 -0.609375 C 1.78125 -0.609375 1.804688 -0.617188 1.828125 -0.640625 C 1.847656 -0.671875 1.859375 -0.707031 1.859375 -0.75 Z M 1.859375 -0.75 " />
            </g>
        </g>
    </g>
    <g fill="#140e54" fill-opacity="1">
        <g transform="translate(30.679454, 14.260145)">
            <g>
                <path d="M 1.8125 -3.1875 C 2.332031 -3.1875 2.59375 -2.90625 2.59375 -2.34375 L 2.59375 -1.328125 L 1.140625 -1.328125 L 1.140625 -0.671875 C 1.140625 -0.640625 1.148438 -0.609375 1.171875 -0.578125 C 1.203125 -0.554688 1.234375 -0.546875 1.265625 -0.546875 L 1.625 -0.546875 C 1.65625 -0.546875 1.679688 -0.554688 1.703125 -0.578125 C 1.734375 -0.609375 1.75 -0.640625 1.75 -0.671875 L 1.75 -1.03125 L 2.59375 -1.03125 L 2.59375 -0.78125 C 2.59375 -0.21875 2.332031 0.0625 1.8125 0.0625 L 1.078125 0.0625 C 0.546875 0.0625 0.28125 -0.21875 0.28125 -0.78125 L 0.28125 -2.34375 C 0.28125 -2.90625 0.546875 -3.1875 1.078125 -3.1875 Z M 1.140625 -1.890625 L 1.75 -1.890625 L 1.75 -2.46875 C 1.75 -2.507812 1.734375 -2.539062 1.703125 -2.5625 C 1.679688 -2.582031 1.65625 -2.59375 1.625 -2.59375 L 1.265625 -2.59375 C 1.234375 -2.59375 1.203125 -2.582031 1.171875 -2.5625 C 1.148438 -2.539062 1.140625 -2.507812 1.140625 -2.46875 Z M 1.140625 -1.890625 " />
            </g>
        </g>
    </g>
    <g fill="#140e54" fill-opacity="1">
        <g transform="translate(33.466433, 14.260145)">
            <g>
                <path d="M 2.59375 -1.890625 L 1.75 -1.890625 L 1.75 -2.453125 C 1.75 -2.484375 1.734375 -2.507812 1.703125 -2.53125 C 1.679688 -2.5625 1.65625 -2.578125 1.625 -2.578125 L 1.265625 -2.578125 C 1.234375 -2.578125 1.203125 -2.5625 1.171875 -2.53125 C 1.148438 -2.507812 1.140625 -2.484375 1.140625 -2.453125 L 1.140625 -0.671875 C 1.140625 -0.640625 1.148438 -0.609375 1.171875 -0.578125 C 1.203125 -0.554688 1.234375 -0.546875 1.265625 -0.546875 L 1.625 -0.546875 C 1.65625 -0.546875 1.679688 -0.554688 1.703125 -0.578125 C 1.734375 -0.609375 1.75 -0.640625 1.75 -0.671875 L 1.75 -1.234375 L 2.59375 -1.234375 L 2.59375 -0.78125 C 2.59375 -0.21875 2.332031 0.0625 1.8125 0.0625 L 1.078125 0.0625 C 0.546875 0.0625 0.28125 -0.21875 0.28125 -0.78125 L 0.28125 -2.34375 C 0.28125 -2.90625 0.546875 -3.1875 1.078125 -3.1875 L 1.8125 -3.1875 C 2.332031 -3.1875 2.59375 -2.90625 2.59375 -2.34375 Z M 2.59375 -1.890625 " />
            </g>
        </g>
    </g>
    <g fill="#140e54" fill-opacity="1">
        <g transform="translate(36.323887, 14.260145)">
            <g>
                <path d="M 1.8125 -3.1875 C 2.332031 -3.1875 2.59375 -2.90625 2.59375 -2.34375 L 2.59375 -1.328125 L 1.140625 -1.328125 L 1.140625 -0.671875 C 1.140625 -0.640625 1.148438 -0.609375 1.171875 -0.578125 C 1.203125 -0.554688 1.234375 -0.546875 1.265625 -0.546875 L 1.625 -0.546875 C 1.65625 -0.546875 1.679688 -0.554688 1.703125 -0.578125 C 1.734375 -0.609375 1.75 -0.640625 1.75 -0.671875 L 1.75 -1.03125 L 2.59375 -1.03125 L 2.59375 -0.78125 C 2.59375 -0.21875 2.332031 0.0625 1.8125 0.0625 L 1.078125 0.0625 C 0.546875 0.0625 0.28125 -0.21875 0.28125 -0.78125 L 0.28125 -2.34375 C 0.28125 -2.90625 0.546875 -3.1875 1.078125 -3.1875 Z M 1.140625 -1.890625 L 1.75 -1.890625 L 1.75 -2.46875 C 1.75 -2.507812 1.734375 -2.539062 1.703125 -2.5625 C 1.679688 -2.582031 1.65625 -2.59375 1.625 -2.59375 L 1.265625 -2.59375 C 1.234375 -2.59375 1.203125 -2.582031 1.171875 -2.5625 C 1.148438 -2.539062 1.140625 -2.507812 1.140625 -2.46875 Z M 1.140625 -1.890625 " />
            </g>
        </g>
    </g>
    <g fill="#140e54" fill-opacity="1">
        <g transform="translate(39.110866, 14.260145)">
            <g>
                <path d="M 1.140625 0 L 0.28125 0 L 0.28125 -3.125 L 1.0625 -3.125 L 1.0625 -2.96875 C 1.195312 -3.113281 1.398438 -3.1875 1.671875 -3.1875 L 1.8125 -3.1875 C 2.332031 -3.1875 2.59375 -2.90625 2.59375 -2.34375 L 2.59375 0 L 1.75 0 L 1.75 -2.453125 C 1.75 -2.484375 1.734375 -2.507812 1.703125 -2.53125 C 1.679688 -2.5625 1.65625 -2.578125 1.625 -2.578125 L 1.265625 -2.578125 C 1.234375 -2.578125 1.203125 -2.5625 1.171875 -2.53125 C 1.148438 -2.507812 1.140625 -2.484375 1.140625 -2.453125 Z M 1.140625 0 " />
            </g>
        </g>
    </g>
    <g fill="#140e54" fill-opacity="1">
        <g transform="translate(42.006762, 14.260145)">
            <g>
                <path d="M 1.421875 -0.5 L 1.6875 -0.5 L 1.6875 0.0625 L 1.078125 0.0625 C 0.546875 0.0625 0.28125 -0.21875 0.28125 -0.78125 L 0.28125 -3.8125 L 1.140625 -3.8125 L 1.140625 -3.125 L 1.6875 -3.125 L 1.6875 -2.5 L 1.140625 -2.5 L 1.140625 -0.796875 C 1.140625 -0.679688 1.160156 -0.601562 1.203125 -0.5625 C 1.253906 -0.519531 1.328125 -0.5 1.421875 -0.5 Z M 1.421875 -0.5 " />
            </g>
        </g>
    </g>
    <g fill="#140e54" fill-opacity="1">
        <g transform="translate(43.851935, 14.260145)">
            <g>
                <path d="M 1.625 -3.1875 L 1.78125 -3.1875 L 1.78125 -2.359375 L 1.359375 -2.359375 C 1.210938 -2.359375 1.140625 -2.285156 1.140625 -2.140625 L 1.140625 0 L 0.28125 0 L 0.28125 -3.125 L 1.0625 -3.125 L 1.0625 -2.828125 C 1.1875 -3.066406 1.375 -3.1875 1.625 -3.1875 Z M 1.625 -3.1875 " />
            </g>
        </g>
    </g>
    <g fill="#140e54" fill-opacity="1">
        <g transform="translate(45.735549, 14.260145)">
            <g>
                <path d="M 1.875 -3.125 L 2.59375 -3.125 L 2.59375 0 L 1.875 0 L 1.875 -0.234375 C 1.738281 -0.0351562 1.519531 0.0625 1.21875 0.0625 L 1.078125 0.0625 C 0.546875 0.0625 0.28125 -0.21875 0.28125 -0.78125 L 0.28125 -2.34375 C 0.28125 -2.90625 0.546875 -3.1875 1.078125 -3.1875 L 1.21875 -3.1875 C 1.519531 -3.1875 1.738281 -3.085938 1.875 -2.890625 Z M 1.75 -0.671875 L 1.75 -2.453125 C 1.75 -2.484375 1.734375 -2.507812 1.703125 -2.53125 C 1.679688 -2.5625 1.65625 -2.578125 1.625 -2.578125 L 1.265625 -2.578125 C 1.234375 -2.578125 1.203125 -2.5625 1.171875 -2.53125 C 1.148438 -2.507812 1.140625 -2.484375 1.140625 -2.453125 L 1.140625 -0.671875 C 1.140625 -0.640625 1.148438 -0.609375 1.171875 -0.578125 C 1.203125 -0.554688 1.234375 -0.546875 1.265625 -0.546875 L 1.625 -0.546875 C 1.65625 -0.546875 1.679688 -0.554688 1.703125 -0.578125 C 1.734375 -0.609375 1.75 -0.640625 1.75 -0.671875 Z M 1.75 -0.671875 " />
            </g>
        </g>
    </g>
    <g fill="#140e54" fill-opacity="1">
        <g transform="translate(48.631445, 14.260145)">
            <g>
                <path d="M 1.140625 0 L 0.28125 0 L 0.28125 -4.140625 L 1.140625 -4.140625 Z M 1.140625 0 " />
            </g>
        </g>
    </g>
    <g fill="#140e54" fill-opacity="1">
        <g transform="translate(50.066579, 14.260145)">
            <g>
                <path d="M 1.15625 -3.515625 C 1.070312 -3.421875 0.960938 -3.375 0.828125 -3.375 C 0.703125 -3.375 0.59375 -3.421875 0.5 -3.515625 C 0.40625 -3.609375 0.359375 -3.71875 0.359375 -3.84375 C 0.359375 -3.976562 0.40625 -4.09375 0.5 -4.1875 C 0.59375 -4.28125 0.703125 -4.328125 0.828125 -4.328125 C 0.960938 -4.328125 1.070312 -4.28125 1.15625 -4.1875 C 1.25 -4.09375 1.296875 -3.976562 1.296875 -3.84375 C 1.296875 -3.71875 1.25 -3.609375 1.15625 -3.515625 Z M 0.40625 0 L 0.40625 -3.125 L 1.265625 -3.125 L 1.265625 0 Z M 0.40625 0 " />
            </g>
        </g>
    </g>
    <g fill="#140e54" fill-opacity="1">
        <g transform="translate(51.642664, 14.260145)">
            <g>
                <path d="M 1.078125 -0.640625 L 2.3125 -0.640625 L 2.3125 0 L 0.203125 0 L 0.203125 -0.609375 L 1.40625 -2.5 L 0.203125 -2.5 L 0.203125 -3.125 L 2.3125 -3.125 L 2.3125 -2.5625 Z M 1.078125 -0.640625 " />
            </g>
        </g>
    </g>
    <g fill="#140e54" fill-opacity="1">
        <g transform="translate(54.115709, 14.260145)">
            <g>
                <path d="M 1.8125 -3.1875 C 2.332031 -3.1875 2.59375 -2.90625 2.59375 -2.34375 L 2.59375 -1.328125 L 1.140625 -1.328125 L 1.140625 -0.671875 C 1.140625 -0.640625 1.148438 -0.609375 1.171875 -0.578125 C 1.203125 -0.554688 1.234375 -0.546875 1.265625 -0.546875 L 1.625 -0.546875 C 1.65625 -0.546875 1.679688 -0.554688 1.703125 -0.578125 C 1.734375 -0.609375 1.75 -0.640625 1.75 -0.671875 L 1.75 -1.03125 L 2.59375 -1.03125 L 2.59375 -0.78125 C 2.59375 -0.21875 2.332031 0.0625 1.8125 0.0625 L 1.078125 0.0625 C 0.546875 0.0625 0.28125 -0.21875 0.28125 -0.78125 L 0.28125 -2.34375 C 0.28125 -2.90625 0.546875 -3.1875 1.078125 -3.1875 Z M 1.140625 -1.890625 L 1.75 -1.890625 L 1.75 -2.46875 C 1.75 -2.507812 1.734375 -2.539062 1.703125 -2.5625 C 1.679688 -2.582031 1.65625 -2.59375 1.625 -2.59375 L 1.265625 -2.59375 C 1.234375 -2.59375 1.203125 -2.582031 1.171875 -2.5625 C 1.148438 -2.539062 1.140625 -2.507812 1.140625 -2.46875 Z M 1.140625 -1.890625 " />
            </g>
        </g>
    </g>
    <g fill="#140e54" fill-opacity="1">
        <g transform="translate(56.902688, 14.260145)">
            <g>
                <path d="M 1.21875 -3.1875 C 1.4375 -3.1875 1.613281 -3.132812 1.75 -3.03125 L 1.75 -4.140625 L 2.59375 -4.140625 L 2.59375 0 L 1.875 0 L 1.875 -0.234375 C 1.738281 -0.0351562 1.519531 0.0625 1.21875 0.0625 L 1.078125 0.0625 C 0.546875 0.0625 0.28125 -0.21875 0.28125 -0.78125 L 0.28125 -2.34375 C 0.28125 -2.90625 0.546875 -3.1875 1.078125 -3.1875 Z M 1.75 -0.671875 L 1.75 -2.453125 C 1.75 -2.484375 1.734375 -2.507812 1.703125 -2.53125 C 1.679688 -2.5625 1.65625 -2.578125 1.625 -2.578125 L 1.265625 -2.578125 C 1.234375 -2.578125 1.203125 -2.5625 1.171875 -2.53125 C 1.148438 -2.507812 1.140625 -2.484375 1.140625 -2.453125 L 1.140625 -0.671875 C 1.140625 -0.640625 1.148438 -0.609375 1.171875 -0.578125 C 1.203125 -0.554688 1.234375 -0.546875 1.265625 -0.546875 L 1.625 -0.546875 C 1.65625 -0.546875 1.679688 -0.554688 1.703125 -0.578125 C 1.734375 -0.609375 1.75 -0.640625 1.75 -0.671875 Z M 1.75 -0.671875 " />
            </g>
        </g>
    </g>
    <g fill="#03c9d7" fill-opacity="1">
        <g transform="translate(37.455437, 19.373373)">
            <g>
                <path d="M 1.203125 -0.265625 C 1.304688 -0.265625 1.410156 -0.273438 1.515625 -0.296875 C 1.628906 -0.328125 1.738281 -0.363281 1.84375 -0.40625 L 1.84375 -0.109375 C 1.695312 -0.0546875 1.570312 -0.0195312 1.46875 0 C 1.363281 0.0195312 1.253906 0.03125 1.140625 0.03125 C 0.785156 0.03125 0.535156 -0.0625 0.390625 -0.25 C 0.242188 -0.4375 0.171875 -0.742188 0.171875 -1.171875 C 0.171875 -1.585938 0.253906 -1.890625 0.421875 -2.078125 C 0.585938 -2.273438 0.859375 -2.375 1.234375 -2.375 C 1.347656 -2.375 1.445312 -2.367188 1.53125 -2.359375 C 1.625 -2.359375 1.707031 -2.351562 1.78125 -2.34375 L 1.78125 -2.0625 C 1.695312 -2.070312 1.609375 -2.078125 1.515625 -2.078125 C 1.429688 -2.085938 1.335938 -2.09375 1.234375 -2.09375 C 0.953125 -2.09375 0.753906 -2.019531 0.640625 -1.875 C 0.535156 -1.738281 0.484375 -1.503906 0.484375 -1.171875 C 0.484375 -0.835938 0.53125 -0.601562 0.625 -0.46875 C 0.726562 -0.332031 0.921875 -0.265625 1.203125 -0.265625 Z M 1.203125 -0.265625 " />
            </g>
        </g>
    </g>
    <g fill="#03c9d7" fill-opacity="1">
        <g transform="translate(39.389283, 19.373373)">
            <g>
                <path d="M 0.359375 0 L 0.03125 0 L 0.953125 -2.34375 L 1.28125 -2.34375 L 2.203125 0 L 1.859375 0 L 1.65625 -0.5625 L 0.578125 -0.5625 Z M 1.109375 -2.046875 C 1.085938 -1.960938 1.054688 -1.867188 1.015625 -1.765625 C 0.984375 -1.671875 0.953125 -1.578125 0.921875 -1.484375 L 0.6875 -0.84375 L 1.546875 -0.84375 L 1.3125 -1.484375 C 1.257812 -1.617188 1.21875 -1.726562 1.1875 -1.8125 C 1.15625 -1.894531 1.128906 -1.972656 1.109375 -2.046875 Z M 1.109375 -2.046875 " />
            </g>
        </g>
    </g>
    <g fill="#03c9d7" fill-opacity="1">
        <g transform="translate(41.62179, 19.373373)">
            <g>
                <path d="M 0.59375 -0.84375 L 0.59375 0 L 0.265625 0 L 0.265625 -2.34375 L 1.0625 -2.34375 C 1.394531 -2.34375 1.628906 -2.285156 1.765625 -2.171875 C 1.910156 -2.054688 1.984375 -1.867188 1.984375 -1.609375 C 1.984375 -1.398438 1.9375 -1.234375 1.84375 -1.109375 C 1.757812 -0.992188 1.625 -0.914062 1.4375 -0.875 L 2.046875 0 L 1.671875 0 L 1.109375 -0.84375 Z M 1.671875 -1.609375 C 1.671875 -1.765625 1.625 -1.875 1.53125 -1.9375 C 1.4375 -2.007812 1.28125 -2.046875 1.0625 -2.046875 L 0.59375 -2.046875 L 0.59375 -1.125 L 1.0625 -1.125 C 1.28125 -1.125 1.4375 -1.160156 1.53125 -1.234375 C 1.625 -1.316406 1.671875 -1.441406 1.671875 -1.609375 Z M 1.671875 -1.609375 " />
            </g>
        </g>
    </g>
    <g fill="#03c9d7" fill-opacity="1">
        <g transform="translate(43.783365, 19.373373)">
            <g>
                <path d="M 0.59375 -0.96875 L 0.59375 0 L 0.265625 0 L 0.265625 -2.34375 L 1.765625 -2.34375 L 1.765625 -2.046875 L 0.59375 -2.046875 L 0.59375 -1.25 L 1.625 -1.25 L 1.625 -0.96875 Z M 0.59375 -0.96875 " />
            </g>
        </g>
    </g>
    <g fill="#03c9d7" fill-opacity="1">
        <g transform="translate(45.642542, 19.373373)">
            <g>
                <path d="M 0.359375 0 L 0.03125 0 L 0.953125 -2.34375 L 1.28125 -2.34375 L 2.203125 0 L 1.859375 0 L 1.65625 -0.5625 L 0.578125 -0.5625 Z M 1.109375 -2.046875 C 1.085938 -1.960938 1.054688 -1.867188 1.015625 -1.765625 C 0.984375 -1.671875 0.953125 -1.578125 0.921875 -1.484375 L 0.6875 -0.84375 L 1.546875 -0.84375 L 1.3125 -1.484375 C 1.257812 -1.617188 1.21875 -1.726562 1.1875 -1.8125 C 1.15625 -1.894531 1.128906 -1.972656 1.109375 -2.046875 Z M 1.109375 -2.046875 " />
            </g>
        </g>
    </g>
    <g fill="#03c9d7" fill-opacity="1">
        <g transform="translate(47.87505, 19.373373)">
            <g>
                <path d="M 1.203125 -1.21875 L 2.046875 0 L 1.65625 0 L 1 -0.96875 L 0.359375 0 L 0.015625 0 L 0.828125 -1.203125 L 0.046875 -2.34375 L 0.4375 -2.34375 L 1.015625 -1.4375 L 1.625 -2.34375 L 1.96875 -2.34375 Z M 1.203125 -1.21875 " />
            </g>
        </g>
    </g>
</svg>